# File created by Blade
# Date/Time:  Wed Jan 21 17:05:57 2015
# Frame Rate: 120.000 fps
#------------------------------------------------------
:FULLY-SPECIFIED
:DEGREES
151
root 20.073106 30.736129 -13.519149 -157.739915 -1.402900 -180.554934
Spine 18.609147 3.395170 -3.924489
Head -4.633225 -4.956906 6.562788
LeftShoulder 7.827121 -43.730023 17.848886
LeftArm 36.849014 -1.713692 -9.127353
LeftForeArm -2.780240 -0.000000 -2.442927
LeftHand -5.613093 -0.000000 11.402261
LeftHandThumb1 -26.253704 0.000000 33.147579
RightShoulder 2.061100 3.113092 -18.367392
RightArm 35.664729 47.323719 14.546006
RightForeArm -17.733907 -0.000000 6.317546
RightHand -10.695361 -0.000000 -17.468266
RightHandThumb1 -24.326973 -0.000000 -32.862282
LeftUpLeg -65.492280 19.631925 -9.581169
LeftLeg 57.149104 -0.000000 -0.000000
LeftFoot -33.142366 20.292365 -11.368911
LeftToeBase 26.089768 -0.000000 -0.000000
RightUpLeg -66.693280 -20.731339 10.995367
RightLeg 59.343519 -0.000000 -0.000000
RightFoot -35.622408 -23.064364 17.741273
RightToeBase 24.884824 -0.000000 -0.000000
152
root 20.082669 30.486541 -13.410651 -157.390672 -1.262045 -180.552398
Spine 18.994030 3.550036 -4.002642
Head -4.818668 -4.814749 6.581563
LeftShoulder 7.878530 -44.123561 18.059627
LeftArm 37.663711 -1.765541 -9.451737
LeftForeArm -2.817785 -0.000000 -2.383013
LeftHand -5.780500 -0.000000 11.813982
LeftHandThumb1 -26.253704 0.000000 33.147579
RightShoulder 2.142082 3.392883 -18.553347
RightArm 36.533891 47.724064 15.021489
RightForeArm -17.706059 0.000000 6.233275
RightHand -10.459528 -0.000000 -17.555383
RightHandThumb1 -24.326973 -0.000000 -32.862282
LeftUpLeg -66.944756 19.721191 -9.846823
LeftLeg 58.621426 -0.000000 -0.000000
LeftFoot -33.591202 20.305215 -11.312892
LeftToeBase 26.571071 -0.000000 -0.000000
RightUpLeg -68.113753 -20.517611 11.221103
RightLeg 60.751575 -0.000000 -0.000000
RightFoot -36.071730 -23.167146 17.688974
RightToeBase 25.231843 -0.000000 -0.000000
153
root 20.081753 30.232489 -13.306428 -157.126827 -1.115472 -180.626736
Spine 19.460447 3.676103 -4.143509
Head -5.013532 -4.875791 6.631983
LeftShoulder 7.966774 -44.405057 18.189171
LeftArm 38.492702 -1.910854 -9.703234
LeftForeArm -2.909694 -0.000000 -2.370070
LeftHand -5.640791 -0.000000 11.918781
LeftHandThumb1 -26.253704 0.000000 33.147579
RightShoulder 2.251542 3.581438 -18.763576
RightArm 37.323961 48.098147 15.438111
RightForeArm -17.490474 -0.000000 6.238870
RightHand -10.591620 0.000000 -17.899861
RightHandThumb1 -24.326973 -0.000000 -32.862282
LeftUpLeg -68.279890 19.714148 -10.112964
LeftLeg 60.107740 -0.000000 -0.000000
LeftFoot -34.087528 20.399226 -11.440976
LeftToeBase 27.108107 -0.000000 -0.000000
RightUpLeg -69.439866 -20.301200 11.277123
RightLeg 62.191043 -0.000000 -0.000000
RightFoot -36.524714 -23.219971 17.667108
RightToeBase 25.219508 -0.000000 -0.000000
154
root 20.091447 29.975349 -13.209771 -156.850374 -0.988234 -180.604712
Spine 19.883201 3.824462 -4.197280
Head -5.170263 -4.839621 6.682162
LeftShoulder 8.030479 -44.684170 18.354901
LeftArm 39.290045 -2.125550 -10.077937
LeftForeArm -2.939316 -0.000000 -2.221331
LeftHand -5.843241 0.000000 12.315742
LeftHandThumb1 -26.253704 0.000000 33.147579
RightShoulder 2.369380 3.621837 -18.886276
RightArm 38.208692 48.658988 15.841340
RightForeArm -17.398131 -0.000000 6.161457
RightHand -10.335310 0.000000 -18.087460
RightHandThumb1 -24.326973 -0.000000 -32.862282
LeftUpLeg -69.657891 19.800327 -10.317279
LeftLeg 61.612517 -0.000000 -0.000000
LeftFoot -34.543521 20.329140 -11.492868
LeftToeBase 27.374403 -0.000000 -0.000000
RightUpLeg -70.753560 -20.080124 11.461075
RightLeg 63.613289 -0.000000 -0.000000
RightFoot -36.972552 -23.197598 17.637587
RightToeBase 24.997711 -0.000000 -0.000000
155
root 20.095865 29.713917 -13.113605 -156.547447 -0.810033 -180.584808
Spine 20.235814 3.999107 -4.269418
Head -5.258320 -4.764921 6.715144
LeftShoulder 8.187835 -45.069310 18.486916
LeftArm 39.939871 -2.248466 -10.512355
LeftForeArm -2.868634 -0.000000 -2.195636
LeftHand -5.569717 -0.000000 12.686325
LeftHandThumb1 -26.253704 0.000000 33.147579
RightShoulder 2.486260 4.140126 -19.106474
RightArm 38.868923 48.661206 16.282848
RightForeArm -17.351197 -0.000000 6.240472
RightHand -10.470278 0.000000 -18.439641
RightHandThumb1 -24.326973 -0.000000 -32.862282
LeftUpLeg -71.060936 19.901249 -10.555437
LeftLeg 63.100750 -0.000000 -0.000000
LeftFoot -35.011241 20.270710 -11.578515
LeftToeBase 27.419258 -0.000000 -0.000000
RightUpLeg -72.093178 -19.818782 11.617625
RightLeg 65.025828 -0.000000 -0.000000
RightFoot -37.387089 -23.188989 17.587830
RightToeBase 25.017663 -0.000000 -0.000000
156
root 20.091128 29.450424 -13.022401 -156.335875 -0.647675 -180.699984
Spine 20.729848 4.097730 -4.485111
Head -5.451519 -4.681710 6.779026
LeftShoulder 8.230708 -45.376127 18.694081
LeftArm 40.674347 -2.370621 -10.862222
LeftForeArm -3.035742 -0.000000 -2.140298
LeftHand -5.463702 -0.000000 12.807931
LeftHandThumb1 -26.253704 0.000000 33.147579
RightShoulder 2.573719 4.751407 -19.327793
RightArm 39.607169 48.671250 16.862517
RightForeArm -17.399282 -0.000000 6.299425
RightHand -10.350959 -0.000000 -18.942432
RightHandThumb1 -24.326973 -0.000000 -32.862282
LeftUpLeg -72.304447 19.925045 -10.859748
LeftLeg 64.538716 -0.000000 -0.000000
LeftFoot -35.454226 20.213761 -11.650942
LeftToeBase 27.433241 -0.000000 -0.000000
RightUpLeg -73.346532 -19.606665 11.573623
RightLeg 66.462828 -0.000000 -0.000000
RightFoot -37.828116 -23.216997 17.579091
RightToeBase 25.169428 -0.000000 -0.000000
157
root 20.094982 29.182769 -12.937248 -156.114534 -0.516137 -180.690150
Spine 21.170356 4.202261 -4.552436
Head -5.580588 -4.574477 6.814698
LeftShoulder 8.332956 -45.734360 18.828259
LeftArm 41.364460 -2.488153 -11.269460
LeftForeArm -3.059318 -0.000000 -2.110307
LeftHand -5.506433 0.000000 13.273759
LeftHandThumb1 -26.253704 0.000000 33.147579
RightShoulder 2.655892 5.382251 -19.578784
RightArm 40.362787 48.625328 17.513874
RightForeArm -17.640991 -0.000000 6.411086
RightHand -10.626693 -0.000000 -19.333835
RightHandThumb1 -24.326973 -0.000000 -32.862282
LeftUpLeg -73.599946 20.002857 -11.059285
LeftLeg 66.005260 -0.000000 -0.000000
LeftFoot -35.886241 20.189750 -11.673105
LeftToeBase 27.425071 -0.000000 -0.000000
RightUpLeg -74.581281 -19.384619 11.685324
RightLeg 67.866147 -0.000000 -0.000000
RightFoot -38.273525 -23.199469 17.572726
RightToeBase 25.225447 -0.000000 -0.000000
158
root 20.099242 28.908586 -12.860018 -155.895157 -0.405166 -180.652888
Spine 21.562245 4.265684 -4.587034
Head -5.655779 -4.491994 6.847269
LeftShoulder 8.430296 -45.976561 18.956731
LeftArm 42.030233 -2.631910 -11.658180
LeftForeArm -3.130578 0.000000 -2.065951
LeftHand -5.477960 -0.000000 13.471029
LeftHandThumb1 -26.253704 0.000000 33.147579
RightShoulder 2.760144 5.806086 -19.729274
RightArm 41.223951 48.654165 18.010903
RightForeArm -17.696903 -0.000000 6.336845
RightHand -10.471200 -0.000000 -19.766376
RightHandThumb1 -24.326973 -0.000000 -32.862282
LeftUpLeg -74.924010 20.104217 -11.252099
LeftLeg 67.508206 -0.000000 -0.000000
LeftFoot -36.327985 20.142054 -11.696006
LeftToeBase 27.377630 -0.000000 -0.000000
RightUpLeg -75.828186 -19.185167 11.839978
RightLeg 69.302670 -0.000000 -0.000000
RightFoot -38.707719 -23.142243 17.615377
RightToeBase 25.277713 -0.000000 -0.000000
159
root 20.102304 28.629601 -12.782214 -155.725714 -0.274847 -180.616661
Spine 22.016413 4.406766 -4.600535
Head -5.758840 -4.471367 6.876741
LeftShoulder 8.636508 -46.237869 18.979366
LeftArm 42.715135 -2.715443 -11.923301
LeftForeArm -3.272530 -0.000000 -2.092787
LeftHand -5.501635 -0.000000 13.795198
LeftHandThumb1 -26.253704 0.000000 33.147579
RightShoulder 2.869955 6.154283 -19.906847
RightArm 41.707982 48.583095 18.128756
RightForeArm -17.557332 -0.000000 6.340115
RightHand -10.602829 0.000000 -19.919694
RightHandThumb1 -24.326973 -0.000000 -32.862282
LeftUpLeg -76.197934 20.213284 -11.433596
LeftLeg 68.998247 -0.000000 -0.000000
LeftFoot -36.793294 20.125421 -11.704037
LeftToeBase 27.449689 -0.000000 -0.000000
RightUpLeg -77.005001 -18.989641 11.971258
RightLeg 70.694381 -0.000000 -0.000000
RightFoot -39.182033 -23.275011 17.608155
RightToeBase 25.153591 -0.000000 -0.000000
160
root 20.114945 28.347348 -12.706850 -155.567639 -0.076372 -180.467201
Spine 22.472935 4.625619 -4.561981
Head -5.897633 -4.374883 6.923418
LeftShoulder 8.856252 -46.637973 19.077185
LeftArm 43.198132 -2.675325 -12.241072
LeftForeArm -3.502819 -0.000000 -2.002274
LeftHand -5.528408 -0.000000 13.937930
LeftHandThumb1 -26.253704 0.000000 33.147579
RightShoulder 2.953006 6.572685 -20.109747
RightArm 42.384273 48.567234 18.553022
RightForeArm -17.599239 -0.000000 6.384098
RightHand -10.707430 0.000000 -20.199871
RightHandThumb1 -24.326973 -0.000000 -32.862282
LeftUpLeg -77.524090 20.477456 -11.566625
LeftLeg 70.538252 -0.000000 -0.000000
LeftFoot -37.236568 20.065541 -11.723529
LeftToeBase 27.343992 -0.000000 -0.000000
RightUpLeg -78.127263 -18.590459 12.102722
RightLeg 72.091128 -0.000000 -0.000000
RightFoot -39.573856 -23.288726 17.687678
RightToeBase 25.068395 -0.000000 -0.000000
161
root 20.119888 28.060751 -12.639145 -155.474401 -0.072615 -180.306015
Spine 22.990805 4.593178 -4.356557
Head -5.970080 -4.263516 6.833453
LeftShoulder 9.015668 -46.926869 19.058057
LeftArm 43.771941 -2.675472 -12.500753
LeftForeArm -3.791081 -0.000000 -1.999337
LeftHand -5.479156 -0.000000 14.042434
LeftHandThumb1 -26.253704 0.000000 33.147579
RightShoulder 3.123965 7.033313 -20.375236
RightArm 42.904313 48.500831 18.836860
RightForeArm -17.635758 -0.000000 6.494679
RightHand -10.816534 -0.000000 -20.324330
RightHandThumb1 -24.326973 -0.000000 -32.862282
LeftUpLeg -78.740246 20.537510 -11.556712
LeftLeg 72.058424 -0.000000 -0.000000
LeftFoot -37.711588 20.083207 -11.733013
LeftToeBase 27.446193 -0.000000 -0.000000
RightUpLeg -79.215703 -18.491165 12.398347
RightLeg 73.461363 -0.000000 -0.000000
RightFoot -40.007193 -23.284306 17.666134
RightToeBase 25.022030 -0.000000 -0.000000
